<svg width="665" height="170" viewBox="0 0 665 170" fill="none" xmlns="http://www.w3.org/2000/svg">
<path opacity="0.5" d="M10.3359 1.32349H21.3906V57.8079H31.0391V1.32349H42.0938V68.8625H31.0391H21.3906H10.3359V1.32349ZM39.6719 57.925C44.5677 58.0032 47.8229 59.6308 49.4375 62.8079C50.7135 65.2558 51.3516 69.748 51.3516 76.2844H42.1328C42.0807 68.3417 41.2214 64.3053 39.5547 64.175L39.6719 57.925ZM42.0938 68.8625H31.0391V12.3782H21.3906V68.8625H10.3359V1.32349H21.3906H31.0391H42.0938V68.8625ZM12.875 64.175C11.2083 64.3053 10.349 68.3417 10.2969 76.2844H1.07812C1.07812 69.748 1.71615 65.2558 2.99219 62.8079C4.60677 59.6308 7.86198 58.0032 12.7578 57.925L12.875 64.175ZM67.5781 1.32349H78.6328H88.2812H99.3359V68.8625H88.2812V12.3782H78.6328V57.1438H67.5781V1.32349ZM62.8125 59.0188C66.0156 59.0188 67.6172 57.287 67.6172 53.8235V3.78442H78.6719V53.8235C78.6719 64.5787 73.3854 69.9563 62.8125 69.9563V59.0188ZM145.094 68.8625H134.039V39.3313L132.633 39.136L122.672 68.8625H110.562L122.984 37.4172C117.177 35.5422 114.273 31.636 114.273 25.6985V15.5032C114.273 6.07609 119.182 1.36255 129 1.36255C129.156 1.36255 129.391 1.34953 129.703 1.32349H145.094V68.8625ZM130.133 10.9329C126.93 10.9329 125.328 12.4563 125.328 15.5032V25.6985C125.328 27.8339 126.331 29.2532 128.336 29.9563C128.909 30.1646 129.964 30.2688 131.5 30.2688H134.039V10.9329H130.133ZM210.164 55.7375C210.164 65.1907 204.865 69.9172 194.266 69.9172C183.693 69.9172 178.406 65.1907 178.406 55.7375V14.4485C178.406 4.96932 183.693 0.229736 194.266 0.229736C204.865 0.229736 210.164 4.96932 210.164 14.4485V55.7375ZM199.109 14.4485C199.109 11.4016 197.508 9.86515 194.305 9.83911C191.076 9.83911 189.461 11.3756 189.461 14.4485V55.7375C189.461 58.7844 191.062 60.3079 194.266 60.3079C197.495 60.3079 199.109 58.7844 199.109 55.7375V14.4485ZM223.578 1.32349H234.633H244.281H255.336V68.8625H244.281V12.3782H234.633V68.8625H223.578V1.32349ZM269.531 1.32349H284.922C285.234 1.34953 285.469 1.36255 285.625 1.36255C295.443 1.36255 300.352 6.07609 300.352 15.5032V25.6985C300.352 32.6777 296.823 37.1698 289.766 39.175C288.073 39.6438 285.612 39.8782 282.383 39.8782H280.586V68.8625H269.531V1.32349ZM280.586 10.9329V30.2688H283.125C284.661 30.2688 285.716 30.1646 286.289 29.9563C288.294 29.2532 289.297 27.8339 289.297 25.6985V15.5032C289.297 12.4563 287.695 10.9329 284.492 10.9329H280.586ZM312.594 1.32349H341.266V10.9329H323.648V30.2688H338.805V39.8782H323.648V59.2532H341.266V68.8625H312.594V1.32349ZM360.148 1.32349H371.203V57.8079H380.852V1.32349H391.906V68.8625H380.852H371.203H360.148V1.32349ZM389.484 57.925C394.38 58.0032 397.635 59.6308 399.25 62.8079C400.526 65.2558 401.164 69.748 401.164 76.2844H391.945C391.893 68.3417 391.034 64.3053 389.367 64.175L389.484 57.925ZM391.906 68.8625H380.852V12.3782H371.203V68.8625H360.148V1.32349H371.203H380.852H391.906V68.8625ZM362.688 64.175C361.021 64.3053 360.161 68.3417 360.109 76.2844H350.891C350.891 69.748 351.529 65.2558 352.805 62.8079C354.419 59.6308 357.674 58.0032 362.57 57.925L362.688 64.175ZM412.625 1.32349H441.297V10.9329H423.68V30.2688H438.836V39.8782H423.68V59.2532H441.297V68.8625H412.625V1.32349ZM454.828 1.32349H465.883H475.531H486.586V68.8625H475.531V12.3782H465.883V57.1438H454.828V1.32349ZM450.062 59.0188C453.266 59.0188 454.867 57.287 454.867 53.8235V3.78442H465.922V53.8235C465.922 64.5787 460.635 69.9563 450.062 69.9563V59.0188ZM497.812 1.32349H526.484V10.9329H508.867V30.2688H524.023V39.8782H508.867V59.2532H526.484V68.8625H497.812V1.32349ZM537.906 1.32349H548.961V30.2688H558.609V1.32349H569.664V68.8625H558.609V39.8782H548.961V68.8625H537.906V1.32349ZM615.617 68.8625H604.992V30.8938L594.914 68.8625H583.859V1.32349H594.094V40.5032L604.562 1.32349H615.617V68.8625ZM664.344 68.8625H653.289V39.3313L651.883 39.136L641.922 68.8625H629.812L642.234 37.4172C636.427 35.5422 633.523 31.636 633.523 25.6985V15.5032C633.523 6.07609 638.432 1.36255 648.25 1.36255C648.406 1.36255 648.641 1.34953 648.953 1.32349H664.344V68.8625ZM649.383 10.9329C646.18 10.9329 644.578 12.4563 644.578 15.5032V25.6985C644.578 27.8339 645.581 29.2532 647.586 29.9563C648.159 30.1646 649.214 30.2688 650.75 30.2688H653.289V10.9329H649.383ZM32.0547 155.738C32.0547 165.191 26.7552 169.917 16.1562 169.917C5.58333 169.917 0.296875 165.191 0.296875 155.738V114.448C0.296875 104.969 5.58333 100.23 16.1562 100.23C26.7552 100.23 32.0547 104.969 32.0547 114.448V123.511H21V114.448C21 111.402 19.3984 109.865 16.1953 109.839C12.9661 109.839 11.3516 111.376 11.3516 114.448V155.738C11.3516 158.784 12.9531 160.308 16.1562 160.308C19.3854 160.308 21 158.784 21 155.738V146.636H32.0547V155.738ZM73.7109 101.323V110.933H63.3594V168.863H52.3047V110.933H41.9531V101.323H73.7109ZM116.539 168.863H105.914V130.894L95.8359 168.863H84.7812V101.323H95.0156V140.503L105.484 101.323H116.539V168.863ZM135.5 101.323H146.555H156.203H167.258V168.863H156.203V112.378H146.555V157.144H135.5V101.323ZM130.734 159.019C133.938 159.019 135.539 157.287 135.539 153.823V103.784H146.594V153.823C146.594 164.579 141.307 169.956 130.734 169.956V159.019ZM210.242 168.863H199.617V130.894L189.539 168.863H178.484V101.323H188.719V140.503L199.188 101.323H210.242V168.863ZM255.414 155.738C255.414 165.191 250.115 169.917 239.516 169.917C228.943 169.917 223.656 165.191 223.656 155.738V114.448C223.656 104.969 228.943 100.23 239.516 100.23C250.115 100.23 255.414 104.969 255.414 114.448V123.511H244.359V114.448C244.359 111.402 242.758 109.865 239.555 109.839C236.326 109.839 234.711 111.376 234.711 114.448V155.738C234.711 158.784 236.312 160.308 239.516 160.308C242.745 160.308 244.359 158.784 244.359 155.738V146.636H255.414V155.738ZM297.07 101.323V110.933H286.719V168.863H275.664V110.933H265.312V101.323H297.07ZM339.898 168.863H329.273V130.894L319.195 168.863H308.141V101.323H318.375V140.503L328.844 101.323H339.898V168.863ZM374.133 135.073L388.742 168.863H376.906L365.148 138.823V168.863H354.094V101.323H365.148V131.363L376.906 101.323H388.742L374.133 135.073ZM431.18 168.863H420.555V130.894L410.477 168.863H399.422V101.323H409.656V140.503L420.125 101.323H431.18V168.863Z" fill="black"/>
</svg>
