<svg width="170" height="170" viewBox="0 0 170 170" fill="none" xmlns="http://www.w3.org/2000/svg">
<path fill-rule="evenodd" clip-rule="evenodd" d="M32.5169 151.388C32.1728 151.158 31.9434 150.814 31.9434 150.355C31.8287 149.895 31.9434 149.551 32.2875 149.207C32.5169 148.862 32.8609 148.748 33.3197 148.633C33.7785 148.633 34.1225 148.748 34.4666 148.977C34.8107 149.207 35.0401 149.551 35.0401 150.01C35.1548 150.469 35.0401 150.814 34.696 151.158C34.4666 151.502 34.1225 151.617 33.6638 151.732C33.3197 151.732 32.8609 151.617 32.5169 151.388ZM35.9576 149.321L33.7785 147.485L38.9396 140.942L41.1187 142.779L35.9576 149.321Z" fill="black"/>
<path fill-rule="evenodd" clip-rule="evenodd" d="M31.1406 145.419L29.1908 143.467L31.37 141.287L29.6496 139.45L27.3558 141.631L25.406 139.68L31.2553 133.826L33.3197 135.777L31.0259 138.073L32.7463 139.909L35.0401 137.613L37.1046 139.565L31.1406 145.419Z" fill="black"/>
<path fill-rule="evenodd" clip-rule="evenodd" d="M23.1119 137.04L21.3915 134.744L23.9148 132.907L22.4238 130.956L19.9006 132.792L18.1802 130.497L24.947 125.561L26.6674 127.857L24.0295 129.808L25.5204 131.759L28.1584 129.808L29.764 132.104L23.1119 137.04Z" fill="black"/>
<path fill-rule="evenodd" clip-rule="evenodd" d="M14.1661 123.954C13.5926 122.806 13.3632 121.658 13.7073 120.511C14.0514 119.363 14.7395 118.444 15.8865 117.871L16.0012 117.756C17.1481 117.182 18.295 117.067 19.4419 117.411C20.4741 117.756 21.3917 118.559 21.9651 119.707C22.5386 120.855 22.768 122.003 22.4239 123.151C22.1945 124.298 21.3917 125.217 20.2447 125.791L20.1301 125.905C18.9831 126.479 17.8362 126.594 16.6893 126.25C15.6571 125.905 14.8542 125.102 14.1661 123.954ZM16.1158 122.921C16.5746 123.954 17.4921 124.069 18.7538 123.38L18.8684 123.265C20.1301 122.577 20.5888 121.773 20.0154 120.74C19.5566 119.822 18.6391 119.592 17.2628 120.281L17.1481 120.396C16.0012 121.199 15.5424 122.003 16.1158 122.921Z" fill="black"/>
<path fill-rule="evenodd" clip-rule="evenodd" d="M11.1841 117.182L9.80775 113.279C9.1196 111.328 9.34899 110.065 10.6106 109.606C11.0694 109.376 11.5281 109.376 11.9869 109.606C12.331 109.721 12.675 110.065 13.0191 110.639C12.7897 109.262 13.1338 108.458 14.166 108.114C14.8542 107.884 15.5423 107.884 16.1158 108.229C16.6893 108.573 17.148 109.262 17.4921 110.295L18.9831 114.427L11.1841 117.182ZM11.7575 113.968L13.2485 113.394L13.0191 112.82C12.7897 112.131 12.4457 111.902 11.8722 112.131C11.6428 112.246 11.4134 112.361 11.4134 112.59C11.4134 112.82 11.4134 113.05 11.5281 113.509L11.7575 113.968ZM14.8542 112.82L16.5746 112.246L16.3452 111.443C16.1158 110.754 15.657 110.41 15.0836 110.639C14.5101 110.869 14.3954 111.213 14.6248 111.902L14.8542 112.82Z" fill="black"/>
<path fill-rule="evenodd" clip-rule="evenodd" d="M6.71089 103.408C6.48151 102.26 6.48151 101.342 6.82558 100.538C7.16966 99.7346 7.9725 99.2755 9.00473 99.0459L14.2805 97.8981L14.854 100.653L13.9365 100.882C14.854 101.227 15.3128 101.916 15.5422 103.063C15.6568 103.867 15.6568 104.556 15.3128 105.129C14.9687 105.818 14.3952 106.163 13.5924 106.392C11.7573 106.736 10.6104 105.474 10.037 102.604V101.801H9.80757C9.3488 101.916 9.00473 102.03 8.89003 102.26C8.66065 102.489 8.66065 102.719 8.77534 103.178C8.89003 103.867 9.3488 104.096 9.92226 104.096L10.4957 106.736C9.57819 106.851 8.66065 106.622 8.08719 106.048C7.39904 105.359 6.94028 104.556 6.71089 103.408ZM11.7573 102.145C11.872 102.719 11.9867 103.063 12.2161 103.293C12.4455 103.522 12.6749 103.637 13.0189 103.522C13.4777 103.408 13.7071 103.063 13.5924 102.375C13.4777 101.916 13.363 101.686 13.0189 101.456C12.7896 101.227 12.4455 101.112 12.1014 101.227L11.6426 101.342L11.7573 102.145Z" fill="black"/>
<path fill-rule="evenodd" clip-rule="evenodd" d="M5.79362 97.2094L5.10547 89.7484L7.05523 89.5188L7.28461 91.9293L13.7074 91.3554L13.9367 94.225L7.514 94.6841L7.74338 97.0946L5.79362 97.2094Z" fill="black"/>
<path fill-rule="evenodd" clip-rule="evenodd" d="M4.99072 82.8613C5.10541 81.4838 5.44949 80.4508 6.25233 79.6473C7.05517 78.8438 8.20209 78.3847 9.4637 78.4994H9.57839C10.84 78.6142 11.9869 79.0734 12.6751 79.9916C13.3632 80.9099 13.7073 81.943 13.7073 83.3204C13.5926 84.583 13.2485 85.7309 12.4457 86.5344C11.6428 87.3378 10.6106 87.797 9.23432 87.6822H9.11963C7.85802 87.5674 6.82579 87.1083 6.02295 86.19C5.22011 85.2717 4.99072 84.2387 4.99072 82.8613ZM7.16987 82.976C7.16987 84.1239 7.85802 84.6978 9.23432 84.6978H9.34901C10.84 84.8126 11.6428 84.2387 11.6428 83.2056C11.6428 82.0578 10.9547 81.4838 9.57839 81.4838H9.4637C7.97271 81.3691 7.16987 81.943 7.16987 82.976Z" fill="black"/>
<path fill-rule="evenodd" clip-rule="evenodd" d="M6.5963 70.0055C6.82568 68.9724 7.28445 68.2837 8.08729 67.8245C9.00483 67.2506 10.1517 67.1358 11.4134 67.4802H11.528C12.9043 67.7098 13.8219 68.2837 14.51 69.0872C15.0835 69.8907 15.3129 70.6942 15.0835 71.7272C14.8541 72.9898 14.166 73.6786 13.2484 74.0229L17.1479 74.8264L16.5745 77.5812L5.79346 75.4003L6.36692 72.6455L7.62853 72.8751C6.71099 72.0716 6.36692 71.1533 6.5963 70.0055ZM8.54606 71.4977C8.43137 71.9568 8.54606 72.4159 8.89013 72.7603C9.23421 73.1046 9.69298 73.3342 10.3811 73.449H10.4958C11.184 73.5638 11.7574 73.5638 12.1015 73.3342C12.5603 73.1046 12.7897 72.7603 12.9043 72.1863C13.1337 71.1533 12.5603 70.4646 11.184 70.1202H11.0693C10.3811 70.0054 9.80767 70.0054 9.3489 70.235C8.89013 70.5794 8.54606 70.9237 8.54606 71.4977Z" fill="black"/>
<path fill-rule="evenodd" clip-rule="evenodd" d="M5.10561 61.3967C5.2203 60.9376 5.44968 60.708 5.79376 60.4785C6.13783 60.2489 6.48191 60.2489 6.94068 60.3637C7.39944 60.4784 7.62883 60.708 7.85821 61.1672C8.08759 61.5115 8.08759 61.9707 7.9729 62.315C7.85821 62.7741 7.62883 63.0037 7.28475 63.2333C6.94068 63.4628 6.5966 63.4628 6.13783 63.3481C5.67907 63.2333 5.44968 63.0037 5.2203 62.6594C4.99092 62.2002 4.99092 61.7411 5.10561 61.3967ZM8.31698 63.8072L9.11982 61.0524L17.0335 63.5776L16.2307 66.3325L8.31698 63.8072Z" fill="black"/>
<path fill-rule="evenodd" clip-rule="evenodd" d="M10.1519 57.9531L11.7575 54.0504C12.5604 52.0991 13.5926 51.4104 14.8542 51.9843C15.313 52.2139 15.6571 52.4434 15.8864 52.9026C16.0011 53.2469 16.1158 53.8208 16.0011 54.3948C16.6893 53.2469 17.6068 52.9026 18.5244 53.2469C19.2125 53.5913 19.6713 54.0504 19.9007 54.7391C20.13 55.4278 19.9007 56.2313 19.5566 57.2644L17.8362 61.2818L10.1519 57.9531ZM12.7898 56.0017L14.2808 56.5757L14.5101 56.0017C14.7395 55.4278 14.6248 54.9687 14.1661 54.7391C13.9367 54.6243 13.7073 54.6243 13.4779 54.7391C13.3632 54.8539 13.1338 55.0835 13.0191 55.5426L12.7898 56.0017ZM15.7717 57.3791L17.3774 58.0678L17.7215 57.2644C18.0656 56.5757 17.9509 56.1165 17.3774 55.887C16.804 55.6574 16.4599 55.887 16.1158 56.4609L15.7717 57.3791Z" fill="black"/>
<path fill-rule="evenodd" clip-rule="evenodd" d="M19.4419 34.7667L21.621 32.2415L25.0618 35.2259L23.9149 29.6014L26.094 27.0762L27.3556 33.7337L34.8106 34.4224L32.4021 37.1772L26.6675 36.6033L30.2229 39.7024L28.0438 42.2277L19.4419 34.7667Z" fill="black"/>
<path fill-rule="evenodd" clip-rule="evenodd" d="M33.549 24.2066C34.5812 23.4031 35.6134 22.944 36.7603 22.944C37.9072 22.944 38.9395 23.5179 39.7423 24.4362L39.857 24.5509C40.6598 25.584 41.1186 26.6171 40.8892 27.8797C40.7745 29.0275 40.2011 30.0606 39.1689 30.8641C38.1366 31.6676 37.1044 32.1267 35.9575 32.1267C34.8106 32.1267 33.7783 31.5528 32.8608 30.6345L32.7461 30.5197C31.9433 29.4867 31.5992 28.4536 31.7139 27.191C31.9433 26.0431 32.5167 25.0101 33.549 24.2066ZM34.9253 25.8136C34.1224 26.5023 34.1224 27.4206 35.04 28.5684L35.1546 28.6832C36.0722 29.831 36.9897 30.0606 37.9072 29.2571C38.7101 28.5684 38.7101 27.6501 37.7926 26.5023L37.6779 26.3875C36.6456 25.2397 35.7281 25.1249 34.9253 25.8136Z" fill="black"/>
<path fill-rule="evenodd" clip-rule="evenodd" d="M39.5129 19.5004L42.6096 17.6639L46.1651 20.4187L45.3622 15.9421L48.3442 14.2203L52.5878 21.337L50.294 22.7144L47.4267 18.123L48.4589 23.8622L47.5414 24.4362L42.9537 20.9926L45.7063 25.4692L43.7565 26.7318L39.5129 19.5004Z" fill="black"/>
<path fill-rule="evenodd" clip-rule="evenodd" d="M51.4409 12.6134L54.0788 11.5803L54.9964 13.876L56.3727 13.3021C57.2902 12.9577 58.093 12.843 58.8959 13.0725C59.584 13.3021 60.1575 13.876 60.5016 14.6795C60.8456 15.483 60.8456 16.2865 60.5016 16.9752C60.1575 17.6639 59.4693 18.2378 58.4371 18.5822L54.5376 20.1891L51.4409 12.6134ZM55.7992 15.5978L56.602 17.4343L57.2902 17.2048C57.6343 17.09 57.8637 16.8604 57.9783 16.6308C58.093 16.4013 58.093 16.1717 57.9783 15.8274C57.749 15.2534 57.2902 15.0239 56.4874 15.3682L55.7992 15.5978Z" fill="black"/>
<path fill-rule="evenodd" clip-rule="evenodd" d="M68.7594 6.52984C70.021 6.18548 71.1679 6.41505 72.0855 6.98897C73.003 7.56289 73.6911 8.48117 74.0352 9.7438V9.85857C74.3793 11.1212 74.1499 12.2691 73.5765 13.1873C73.003 14.1056 71.9708 14.7943 70.8239 15.0239C69.7916 15.2534 68.7594 15.2534 67.9566 14.7943C67.1537 14.4499 66.4656 13.7612 66.0068 12.843L65.8921 12.6134L65.204 12.7282L66.0068 15.9421L63.2542 16.6309L61.3044 8.48117L64.057 7.79247L64.7452 10.8916L65.4333 10.7769C65.4333 9.74379 65.6627 8.82553 66.2362 8.02204C66.9243 7.33333 67.7272 6.75941 68.7594 6.52984ZM69.3329 8.59596C68.8741 8.71074 68.53 8.94031 68.4153 9.39944C68.1859 9.85858 68.1859 10.3177 68.4153 11.0064V11.1212C68.7594 12.6134 69.4476 13.1873 70.3651 12.9578C70.8239 12.843 71.1679 12.6134 71.2826 12.1543C71.3973 11.6951 71.512 11.1212 71.2826 10.5473V10.4325C71.1679 9.74379 70.8239 9.28467 70.5945 8.94031C70.1357 8.59596 69.7916 8.48117 69.3329 8.59596Z" fill="black"/>
<path fill-rule="evenodd" clip-rule="evenodd" d="M76.2144 5.38198L78.967 5.26719L79.1963 8.36638L81.7196 8.25159L81.4902 5.15242L84.3575 4.92285L84.8162 13.3021L82.0636 13.4169L81.8342 10.2029L79.311 10.3177L79.5404 13.5317L76.6731 13.7612L76.2144 5.38198Z" fill="black"/>
<path fill-rule="evenodd" clip-rule="evenodd" d="M89.4038 1.36456C89.8626 1.36456 90.2066 1.59412 90.5507 1.82369C90.8948 2.16805 91.0095 2.51241 90.8948 2.85676C90.8948 3.3159 90.6654 3.66025 90.436 3.88981C90.092 4.11938 89.7479 4.23417 89.2891 4.23417C88.8303 4.23417 88.4863 4.00461 88.1422 3.77504C87.9128 3.43069 87.6834 3.08632 87.7981 2.74197C87.7981 2.28283 88.0275 1.93849 88.2569 1.70892C88.601 1.47935 88.945 1.36456 89.4038 1.36456ZM87.7981 5.03766L90.6654 5.15245L90.2066 13.5317L87.3394 13.4169L87.7981 5.03766Z" fill="black"/>
<path fill-rule="evenodd" clip-rule="evenodd" d="M93.1886 5.26709L100.644 6.41493L100.299 8.36628L98.0056 8.02192L96.9734 14.3351L94.2208 13.8759L95.253 7.56278L92.8445 7.21844L93.1886 5.26709Z" fill="black"/>
<path fill-rule="evenodd" clip-rule="evenodd" d="M105.576 3.77499C106.034 3.88977 106.378 4.11933 106.608 4.46368C106.837 4.80803 106.837 5.15239 106.722 5.61152C106.608 6.07066 106.378 6.30023 106.034 6.5298C105.69 6.75937 105.231 6.75938 104.887 6.64459C104.429 6.52981 104.085 6.30023 103.97 5.95588C103.74 5.61153 103.74 5.26717 103.855 4.80804C103.97 4.3489 104.199 4.11933 104.543 3.88976C104.658 3.66019 105.117 3.6602 105.576 3.77499ZM103.167 6.98893L105.92 7.67764L103.855 15.7125L101.103 15.0238L103.167 6.98893Z" fill="black"/>
<path fill-rule="evenodd" clip-rule="evenodd" d="M128.514 13.6464C128.858 13.876 129.087 14.2203 129.202 14.5647C129.317 14.9091 129.202 15.3682 128.972 15.7125C128.743 16.0569 128.399 16.2865 128.055 16.4013C127.596 16.516 127.252 16.4012 126.908 16.1717C126.564 15.9421 126.335 15.5978 126.22 15.2534C126.105 14.9091 126.22 14.4499 126.449 14.1056C126.679 13.7612 127.023 13.5316 127.367 13.4169C127.826 13.3021 128.17 13.4169 128.514 13.6464ZM125.302 16.0569L127.711 17.5491L123.238 24.5509L120.829 23.0587L125.302 16.0569Z" fill="black"/>
<path fill-rule="evenodd" clip-rule="evenodd" d="M130.578 19.3856L132.757 21.2222L130.807 23.6326L132.757 25.2396L134.707 22.8291L136.886 24.5509L131.61 30.9788L129.431 29.2571L131.496 26.7318L129.546 25.1248L127.481 27.6501L125.302 25.8135L130.578 19.3856Z" fill="black"/>
<path fill-rule="evenodd" clip-rule="evenodd" d="M139.524 26.9614L141.359 29.0275L139.065 31.0936L140.786 32.9302L143.08 30.8641L145.029 32.9302L138.836 38.5546L136.886 36.4885L139.295 34.3076L137.689 32.4711L135.166 34.652L133.331 32.4711L139.524 26.9614Z" fill="black"/>
<path fill-rule="evenodd" clip-rule="evenodd" d="M149.731 39.0137C150.42 40.1616 150.764 41.1946 150.534 42.3425C150.305 43.4903 149.731 44.4086 148.585 45.2121L148.47 45.3269C147.323 46.0156 146.291 46.2451 145.144 46.0156C143.997 45.786 143.079 44.9825 142.391 43.9495C141.703 42.8016 141.359 41.7685 141.588 40.6207C141.703 39.4729 142.391 38.5546 143.423 37.7511L143.538 37.6363C144.57 36.9476 145.717 36.718 146.979 36.9476C148.011 37.292 148.929 37.8659 149.731 39.0137ZM147.896 40.1616C147.323 39.2433 146.405 39.1285 145.144 39.932L145.029 40.0468C143.767 40.8503 143.538 41.7685 144.112 42.6868C144.685 43.6051 145.603 43.6051 146.864 42.8016L146.979 42.6868C148.24 41.9981 148.47 41.0798 147.896 40.1616Z" fill="black"/>
<path fill-rule="evenodd" clip-rule="evenodd" d="M153.402 45.4416L155.237 49.2295C156.154 51.1808 156.04 52.4434 154.778 53.0174C154.319 53.2469 153.861 53.2469 153.517 53.1321C153.172 53.0174 152.714 52.673 152.37 52.2139C152.714 53.5913 152.484 54.3948 151.567 54.8539C150.879 55.1983 150.19 55.1983 149.617 54.8539C149.044 54.5096 148.47 53.9356 148.011 52.9026L146.176 48.8851L153.402 45.4416ZM153.172 48.7703L151.796 49.459L152.026 50.033C152.37 50.6069 152.714 50.8365 153.172 50.6069C153.402 50.4921 153.517 50.2625 153.631 50.1478C153.631 49.9182 153.517 49.6886 153.402 49.2295L153.172 48.7703ZM150.19 50.1478L148.585 50.9512L148.929 51.7547C149.273 52.4434 149.732 52.673 150.19 52.4434C150.764 52.2139 150.879 51.7547 150.535 51.1808L150.19 50.1478Z" fill="black"/>
<path fill-rule="evenodd" clip-rule="evenodd" d="M159.251 58.7566C159.595 59.9044 159.595 60.8227 159.366 61.6262C159.022 62.4297 158.448 63.0036 157.416 63.348L152.255 64.9549L151.452 62.3149L152.369 61.9705C151.452 61.741 150.878 61.0523 150.534 60.0192C150.305 59.2157 150.305 58.527 150.534 57.9531C150.764 57.2644 151.337 56.8053 152.14 56.5757C153.86 56.0018 155.237 57.1496 156.04 60.0192L156.269 60.8227L156.498 60.7079C156.957 60.5931 157.186 60.3636 157.416 60.134C157.531 59.9044 157.645 59.5601 157.416 59.2157C157.186 58.527 156.842 58.2974 156.154 58.4122L155.351 55.887C156.269 55.6574 157.186 55.7722 157.875 56.3461C158.333 56.8052 158.907 57.6087 159.251 58.7566ZM154.434 60.4783C154.204 59.9044 154.09 59.5601 153.86 59.3305C153.631 59.1009 153.402 59.1009 153.058 59.2157C152.599 59.3305 152.369 59.7896 152.599 60.3636C152.713 60.7079 152.943 61.0523 153.172 61.2818C153.516 61.5114 153.746 61.5114 154.09 61.3966L154.549 61.2818L154.434 60.4783Z" fill="black"/>
<path fill-rule="evenodd" clip-rule="evenodd" d="M160.857 64.7253L162.118 72.1863L160.283 72.5307L159.824 70.235L153.516 71.3828L153.058 68.628L159.366 67.4802L158.907 65.1845L160.857 64.7253Z" fill="black"/>
<path fill-rule="evenodd" clip-rule="evenodd" d="M163.036 78.9586C163.151 80.336 162.807 81.3691 162.004 82.2873C161.201 83.2056 160.169 83.6648 158.907 83.7795H158.792C157.531 83.8943 156.384 83.4352 155.581 82.6317C154.778 81.8282 154.319 80.7951 154.319 79.4177C154.205 78.1551 154.549 77.0073 155.237 76.089C155.925 75.1707 156.957 74.7116 158.334 74.5968H158.448C159.71 74.482 160.857 74.9412 161.66 75.7446C162.462 76.5481 162.921 77.696 163.036 78.9586ZM160.857 79.0734C160.857 77.9255 160.054 77.4664 158.678 77.5812H158.563C157.072 77.696 156.384 78.2699 156.384 79.3029C156.384 80.4508 157.187 80.9099 158.678 80.7951H158.792C160.169 80.7951 160.857 80.2212 160.857 79.0734Z" fill="black"/>
<path fill-rule="evenodd" clip-rule="evenodd" d="M162.692 91.9293C162.577 92.9624 162.118 93.7659 161.43 94.3398C160.627 94.9137 159.48 95.1433 158.104 95.0285H157.989C156.613 94.9137 155.581 94.4546 154.893 93.6511C154.205 92.9624 153.975 92.0441 154.09 91.011C154.205 89.7484 154.778 88.9449 155.696 88.6006L151.681 88.2562L151.911 85.3866L163.036 86.4197L162.807 89.2893L161.545 89.1745C162.348 89.8632 162.807 90.7815 162.692 91.9293ZM160.627 90.6667C160.627 90.0927 160.513 89.7484 160.169 89.4041C159.825 89.0597 159.366 88.8301 158.678 88.8301H158.563C157.875 88.7154 157.301 88.8301 156.957 89.0597C156.613 89.2893 156.384 89.7484 156.269 90.2075C156.154 91.2406 156.843 91.9293 158.219 92.0441H158.334C159.022 92.1589 159.595 92.0441 159.939 91.8145C160.398 91.5849 160.627 91.2406 160.627 90.6667Z" fill="black"/>
<path fill-rule="evenodd" clip-rule="evenodd" d="M164.986 100.423C164.871 100.882 164.642 101.227 164.298 101.456C163.953 101.686 163.609 101.801 163.151 101.686C162.692 101.571 162.462 101.342 162.233 100.997C162.004 100.653 162.004 100.194 162.004 99.8494C162.118 99.3903 162.348 99.0459 162.692 98.8164C163.036 98.5868 163.38 98.472 163.839 98.5868C164.298 98.7016 164.527 98.9312 164.756 99.2755C164.986 99.6199 165.1 99.9642 164.986 100.423ZM161.545 98.2425L160.971 100.997L152.828 99.2755L153.402 96.5207L161.545 98.2425Z" fill="black"/>
<path fill-rule="evenodd" clip-rule="evenodd" d="M160.283 104.211L159.022 108.229C158.334 110.295 157.416 111.098 156.154 110.639C155.696 110.524 155.237 110.18 155.122 109.836C154.893 109.491 154.893 109.032 154.893 108.343C154.319 109.606 153.517 110.065 152.484 109.721C151.682 109.491 151.223 109.032 150.993 108.343C150.764 107.655 150.764 106.851 151.108 105.818L152.484 101.571L160.283 104.211ZM157.875 106.507L156.384 106.048L156.154 106.622C155.925 107.31 156.154 107.655 156.613 107.884C156.843 107.999 157.072 107.999 157.301 107.77C157.416 107.655 157.645 107.31 157.76 106.966L157.875 106.507ZM154.778 105.474L153.058 104.9L152.828 105.703C152.599 106.392 152.714 106.851 153.287 107.081C153.861 107.31 154.205 107.081 154.434 106.392L154.778 105.474Z" fill="black"/>
<path fill-rule="evenodd" clip-rule="evenodd" d="M153.058 128.775L151.108 131.415L147.438 128.775L149.158 134.17L147.208 136.925L145.259 130.497H137.804L139.983 127.398L145.717 127.512L141.933 124.758L143.768 122.118L153.058 128.775Z" fill="black"/>
<path fill-rule="evenodd" clip-rule="evenodd" d="M140.327 140.253C139.409 141.172 138.377 141.746 137.23 141.746C136.083 141.86 134.936 141.401 134.019 140.483L133.904 140.368C132.987 139.45 132.528 138.417 132.528 137.154C132.528 136.006 133.101 134.973 133.904 134.055C134.822 133.137 135.854 132.563 137.001 132.448C138.148 132.333 139.18 132.792 140.212 133.711L140.327 133.826C141.244 134.744 141.703 135.777 141.703 137.039C141.703 138.187 141.244 139.22 140.327 140.253ZM138.836 138.761C139.639 137.958 139.524 137.039 138.492 136.121L138.377 136.006C137.345 134.973 136.427 134.859 135.625 135.662C134.822 136.466 135.051 137.384 136.083 138.417L136.198 138.532C137.116 139.335 138.033 139.45 138.836 138.761Z" fill="black"/>
<path fill-rule="evenodd" clip-rule="evenodd" d="M134.936 145.419L131.954 147.6L128.17 145.189L129.431 149.551L126.679 151.617L121.632 144.96L123.926 143.238L127.137 147.485L125.646 141.975L126.449 141.286L131.381 144.386L128.17 140.024L129.89 138.761L134.936 145.419Z" fill="black"/>
<path fill-rule="evenodd" clip-rule="evenodd" d="M123.697 153.454L121.173 154.831L120.026 152.65L118.65 153.339C117.733 153.798 116.93 153.913 116.127 153.798C115.324 153.568 114.751 153.109 114.406 152.306C113.948 151.502 113.833 150.699 114.177 150.01C114.521 149.321 115.095 148.748 116.012 148.174L119.797 146.107L123.697 153.454ZM119.109 150.928L118.191 149.207L117.618 149.551C117.274 149.781 117.044 149.895 116.93 150.125C116.815 150.354 116.815 150.584 117.044 150.928C117.388 151.502 117.847 151.617 118.535 151.273L119.109 150.928Z" fill="black"/>
<path fill-rule="evenodd" clip-rule="evenodd" d="M107.066 161.259C105.805 161.718 104.772 161.603 103.74 161.144C102.708 160.685 102.02 159.882 101.561 158.619V158.504C101.102 157.242 101.217 156.094 101.676 155.061C102.249 154.028 103.052 153.339 104.314 152.88C105.346 152.535 106.263 152.535 107.181 152.765C108.099 152.994 108.787 153.683 109.36 154.487L109.475 154.716L110.163 154.487L109.131 151.388L111.769 150.469L114.521 158.389L111.883 159.308L110.851 156.323L110.163 156.553C110.278 157.586 110.163 158.504 109.59 159.308C108.901 160.341 108.099 160.915 107.066 161.259ZM106.378 159.308C106.837 159.193 107.066 158.848 107.181 158.389C107.296 157.93 107.296 157.356 107.066 156.782V156.668C106.608 155.29 105.919 154.716 104.887 155.061C104.428 155.175 104.199 155.52 104.084 155.979C103.97 156.438 103.97 157.012 104.199 157.586V157.701C104.428 158.389 104.772 158.848 105.117 159.078C105.461 159.308 105.919 159.422 106.378 159.308Z" fill="black"/>
<path fill-rule="evenodd" clip-rule="evenodd" d="M99.8408 163.096L96.9735 163.555L96.5147 160.57L94.1062 160.915L94.5649 164.014L91.8123 164.473L90.436 156.208L93.1886 155.749L93.7621 158.963L96.1706 158.619L95.7119 155.405L98.4645 154.946L99.8408 163.096Z" fill="black"/>
<path fill-rule="evenodd" clip-rule="evenodd" d="M87.1098 168.605C86.6511 168.605 86.307 168.49 85.9629 168.261C85.6189 168.031 85.5042 167.687 85.5042 167.228C85.5042 166.769 85.6189 166.424 85.9629 166.195C86.307 165.85 86.6511 165.736 87.1098 165.736C87.5686 165.736 87.9127 165.85 88.2568 166.08C88.6008 166.31 88.7155 166.654 88.7155 167.113C88.7155 167.572 88.6008 167.916 88.3715 168.146C87.9127 168.376 87.5686 168.49 87.1098 168.605ZM88.3715 164.703L85.5042 164.817L85.0454 156.438L87.9127 156.323L88.3715 164.703Z" fill="black"/>
<path fill-rule="evenodd" clip-rule="evenodd" d="M82.981 165.047L75.4114 164.703L75.5261 162.751L77.8199 162.866L78.164 156.438L81.0313 156.553L80.6872 162.981L82.981 163.096V165.047Z" fill="black"/>
<path fill-rule="evenodd" clip-rule="evenodd" d="M70.8238 167.802C70.365 167.687 70.021 167.572 69.7916 167.228C69.5622 166.883 69.4475 166.539 69.4475 166.08C69.5622 165.621 69.6769 165.391 70.021 165.162C70.365 164.932 70.7091 164.817 71.1679 164.932C71.6267 165.047 71.9707 165.162 72.2001 165.506C72.4295 165.85 72.5442 166.195 72.4295 166.654C72.3148 167.113 72.2001 167.457 71.856 167.687C71.6267 167.802 71.2826 167.916 70.8238 167.802ZM72.7736 164.358L69.9063 163.899L71.1679 155.635L74.0352 156.094L72.7736 164.358Z" fill="black"/>
</svg>
