<svg width="1138" height="897" viewBox="0 0 1138 897" fill="none" xmlns="http://www.w3.org/2000/svg">
<g clip-path="url(#clip0)">
<g filter="url(#filter0_f)">
<path d="M261.413 386.645C261.413 329.602 223.42 279.758 204.424 261.966C115.276 162.141 389.639 215.924 542.288 340.196C694.938 464.467 528.041 546.772 389.639 650.264C251.236 753.755 261.413 457.948 261.413 386.645Z" fill="url(#paint0_linear)"/>
</g>
<g filter="url(#filter1_f)">
<path d="M685.644 406.857C742.506 402.14 789.047 360.111 805.211 339.686C897.34 242.484 866.435 520.679 755.193 683.262C643.95 845.846 548.094 686.128 433.476 556.594C318.858 427.059 614.567 412.753 685.644 406.857Z" fill="url(#paint1_linear)"/>
</g>
<path d="M335.871 223.195L336.109 222H334.891H322.855H322.035L321.875 222.805L302.019 322.488L301.781 323.684H303H315.035H315.856L316.016 322.879L335.871 223.195ZM377.856 223.195L378.094 222H376.875H364.84H364.019L363.859 222.805L344.004 322.488L343.766 323.684H344.984H357.02H357.84L358 322.879L377.856 223.195Z" stroke="white" stroke-width="2"/>
</g>
<defs>
<filter id="filter0_f" x="54.7501" y="77.7498" width="680.5" height="726.5" filterUnits="userSpaceOnUse" color-interpolation-filters="sRGB">
<feFlood flood-opacity="0" result="BackgroundImageFix"/>
<feBlend mode="normal" in="SourceGraphic" in2="BackgroundImageFix" result="shape"/>
<feGaussianBlur stdDeviation="66.125" result="effect1_foregroundBlur"/>
</filter>
<filter id="filter1_f" x="275.121" y="187.33" width="716.573" height="697.006" filterUnits="userSpaceOnUse" color-interpolation-filters="sRGB">
<feFlood flood-opacity="0" result="BackgroundImageFix"/>
<feBlend mode="normal" in="SourceGraphic" in2="BackgroundImageFix" result="shape"/>
<feGaussianBlur stdDeviation="66.125" result="effect1_foregroundBlur"/>
</filter>
<linearGradient id="paint0_linear" x1="151.099" y1="210.22" x2="507.25" y2="614.077" gradientUnits="userSpaceOnUse">
<stop/>
<stop offset="1" stop-color="#818072"/>
</linearGradient>
<linearGradient id="paint1_linear" x1="852.378" y1="282.202" x2="478.92" y2="670.602" gradientUnits="userSpaceOnUse">
<stop/>
<stop offset="1" stop-color="#A48D05"/>
</linearGradient>
<clipPath id="clip0">
<rect width="1138" height="897" fill="white"/>
</clipPath>
</defs>
</svg>
