<svg width="117" height="284" viewBox="0 0 117 284" fill="none" xmlns="http://www.w3.org/2000/svg">
<path d="M69.5742 158.602L70.3865 156.774L70.3651 156.764L70.3435 156.755L69.5742 158.602ZM46.332 157.234H44.332V159.234H46.332V157.234ZM46.332 119.09V117.09H44.332V119.09H46.332ZM70.668 117.449L69.6808 115.71L69.6597 115.722L69.639 115.734L70.668 117.449ZM69.5742 43.7578L70.3865 41.9302L70.3651 41.9207L70.3435 41.9117L69.5742 43.7578ZM55.082 42.5273L55.1604 44.5258L55.1878 44.5247L55.2151 44.5229L55.082 42.5273ZM41.1367 96.8047V98.8047H43.1367V96.8047H41.1367ZM2.85547 96.8047H0.855469V98.8047H2.85547V96.8047ZM25.4141 10.3984L26.33 12.1764L26.3392 12.1716L25.4141 10.3984ZM88.9883 9.30469L88.176 11.1323L88.1858 11.1367L88.1956 11.1409L88.9883 9.30469ZM92.8164 138.641L91.8991 136.863L88.4557 138.641L91.8991 140.418L92.8164 138.641ZM95.9609 272.625L97.1105 274.262L97.1211 274.254L95.9609 272.625ZM60.4141 281.238V283.238H60.4368L60.4595 283.238L60.4141 281.238ZM23.9102 274.402L24.9067 272.668L24.9024 272.666L23.9102 274.402ZM2.85547 188.816V186.816H0.855469V188.816H2.85547ZM41.1367 188.816H43.1367V186.816H41.1367V188.816ZM77.7266 175.965C77.7266 170.979 77.2063 166.838 76.0736 163.642C74.9346 160.427 73.102 157.981 70.3865 156.774L68.7619 160.429C70.148 161.045 71.3916 162.404 72.3033 164.978C73.2214 167.569 73.7266 171.198 73.7266 175.965H77.7266ZM70.3435 156.755C67.7789 155.687 64.0799 155.234 59.457 155.234V159.234C63.9487 159.234 66.9945 159.693 68.805 160.448L70.3435 156.755ZM59.457 155.234H46.332V159.234H59.457V155.234ZM48.332 157.234V119.09H44.332V157.234H48.332ZM46.332 121.09H62.4648V117.09H46.332V121.09ZM62.4648 121.09C66.2454 121.09 69.4133 120.534 71.697 119.164L69.639 115.734C68.2768 116.552 65.976 117.09 62.4648 117.09V121.09ZM71.6552 119.189C73.9562 117.883 75.4503 115.494 76.3731 112.501C77.2989 109.499 77.7266 105.653 77.7266 101.043H73.7266C73.7266 105.456 73.3112 108.856 72.5507 111.323C71.7873 113.799 70.7521 115.102 69.6808 115.71L71.6552 119.189ZM77.7266 101.043V61.1211H73.7266V101.043H77.7266ZM77.7266 61.1211C77.7266 56.1349 77.2063 51.9945 76.0736 48.7979C74.9346 45.5831 73.102 43.1371 70.3865 41.9302L68.7619 45.5854C70.148 46.2015 71.3916 47.5607 72.3033 50.1338C73.2214 52.7249 73.7266 56.3547 73.7266 61.1211H77.7266ZM70.3435 41.9117C67.7702 40.8395 63.9245 40.3906 59.0469 40.3906V44.3906C63.8307 44.3906 67.0032 44.8532 68.805 45.604L70.3435 41.9117ZM59.0469 40.3906C57.7233 40.3906 56.3573 40.4379 54.949 40.5318L55.2151 44.5229C56.5412 44.4345 57.8183 44.3906 59.0469 44.3906V40.3906ZM55.0037 40.5289C49.8876 40.7295 45.7818 42.5708 43.023 46.2492C40.3309 49.8388 39.1367 54.897 39.1367 61.1211H43.1367C43.1367 55.3139 44.2668 51.2576 46.223 48.6492C48.1127 46.1297 50.9796 44.6898 55.1604 44.5258L55.0037 40.5289ZM39.1367 61.1211V96.8047H43.1367V61.1211H39.1367ZM41.1367 94.8047H2.85547V98.8047H41.1367V94.8047ZM4.85547 96.8047V60.8477H0.855469V96.8047H4.85547ZM4.85547 60.8477C4.85547 35.274 12.2718 19.4185 26.33 12.1764L24.4981 8.62049C8.47822 16.8732 0.855469 34.6505 0.855469 60.8477H4.85547ZM26.3392 12.1716C36.5565 6.84087 46.9962 4.19531 57.6797 4.19531V0.195312C46.3059 0.195312 35.2352 3.01851 24.4889 8.62527L26.3392 12.1716ZM57.6797 4.19531C67.5708 4.19531 77.7312 6.49016 88.176 11.1323L89.8006 7.47707C78.9173 2.64005 68.2052 0.195312 57.6797 0.195312V4.19531ZM88.1956 11.1409C103.801 17.8776 112.008 34.0307 112.008 60.8477H116.008C116.008 33.3417 107.535 15.1328 89.781 7.46848L88.1956 11.1409ZM112.008 60.8477V101.316H116.008V60.8477H112.008ZM112.008 101.316C112.008 109.845 110.297 116.996 106.971 122.853C103.651 128.7 98.6579 133.375 91.8991 136.863L93.7337 140.418C101.103 136.615 106.705 131.423 110.449 124.828C114.187 118.245 116.008 110.379 116.008 101.316H112.008ZM91.8991 140.418C98.6579 143.906 103.651 148.581 106.971 154.428C110.297 160.286 112.008 167.437 112.008 175.965H116.008C116.008 166.902 114.187 159.037 110.449 152.453C106.705 145.858 101.103 140.667 93.7337 136.863L91.8991 140.418ZM112.008 175.965V224.773H116.008V175.965H112.008ZM112.008 224.773C112.008 247.844 106.055 262.981 94.8008 270.996L97.1211 274.254C109.929 265.133 116.008 248.37 116.008 224.773H112.008ZM94.8114 270.988C87.637 276.027 76.2657 278.878 60.3686 279.239L60.4595 283.238C76.6457 282.87 88.9723 279.978 97.1105 274.262L94.8114 270.988ZM60.4141 279.238H57.1328V283.238H60.4141V279.238ZM57.1328 279.238C43.0868 279.238 32.4098 276.98 24.9067 272.668L22.9136 276.136C31.2699 280.939 42.7413 283.238 57.1328 283.238V279.238ZM24.9024 272.666C11.786 265.171 4.85547 249.545 4.85547 224.773H0.855469C0.855469 250.132 7.96136 267.592 22.9179 276.139L24.9024 272.666ZM4.85547 224.773V188.816H0.855469V224.773H4.85547ZM2.85547 190.816H41.1367V186.816H2.85547V190.816ZM39.1367 188.816V224.91H43.1367V188.816H39.1367ZM39.1367 224.91C39.1367 231.422 40.6305 236.679 43.9713 240.312C47.3412 243.976 52.2678 245.641 58.3633 245.641V241.641C52.9744 241.641 49.2878 240.184 46.9154 237.604C44.514 234.993 43.1367 230.885 43.1367 224.91H39.1367ZM58.3633 245.641C64.4999 245.641 69.4588 243.979 72.8525 240.318C76.2197 236.685 77.7266 231.426 77.7266 224.91H73.7266C73.7266 230.881 72.3396 234.987 69.919 237.598C67.525 240.181 63.8022 241.641 58.3633 241.641V245.641ZM77.7266 224.91V175.965H73.7266V224.91H77.7266Z" fill="black"/>
</svg>
