<svg width="43" height="54" viewBox="0 0 43 54" fill="none" xmlns="http://www.w3.org/2000/svg">
<path d="M5.46 0.000191503C2.45012 0.000191503 0 2.5046 0 5.57885V48.4213C0 51.4956 2.45012 54 5.46 54H37.5332C40.5431 54 42.9932 51.4957 42.9932 48.4213V13.1929C42.9932 13.1929 43.0791 12.1613 42.6407 11.1575C42.2297 10.2166 41.5599 9.56168 41.5599 9.56168C41.5583 9.55937 41.5566 9.55706 41.5549 9.55476L33.5974 1.58233C33.5931 1.57779 33.5887 1.57328 33.5842 1.56883C33.5842 1.56883 32.9048 0.908044 31.8977 0.466619C30.7119 -0.0531369 29.4896 0.00173013 29.4896 0.00173013L29.5078 0L5.46 0.000191503Z" fill="#FF2116"/>
<path d="M5.46012 1.83276H29.508C29.514 1.83283 29.5201 1.83283 29.5262 1.83276C29.5262 1.83276 30.4878 1.84228 31.1912 2.15058C31.8681 2.4473 32.3482 2.89647 32.3513 2.89948C32.3514 2.89949 32.3547 2.90294 32.3547 2.90294L40.2923 10.8568C40.2923 10.8568 40.7705 11.3725 41.0023 11.9032C41.1894 12.3316 41.2009 13.1153 41.2009 13.1153C41.2001 13.1282 41.1995 13.1412 41.1992 13.1541V48.4215C41.1992 50.5125 39.5805 52.1676 37.5333 52.1676H5.46012C3.41291 52.1676 1.79419 50.5126 1.79419 48.4215V5.57899C1.79419 3.48782 3.41291 1.83283 5.46012 1.83283V1.83276Z" fill="#F5F5F5"/>
<path d="M10.735 32.1512C9.50065 30.8904 10.8361 29.1578 14.4605 27.3181L16.741 26.1605L17.6295 24.1749C18.1181 23.0829 18.8474 21.301 19.2501 20.2152L19.9824 18.2411L19.4778 16.7801C18.8574 14.9837 18.6361 12.2842 19.0298 11.3135C19.563 9.99868 21.3095 10.1336 22.0009 11.543C22.5409 12.6438 22.4857 14.6372 21.8456 17.1512L21.3208 19.2123L21.7831 20.0138C22.0373 20.4547 22.7799 21.5014 23.4333 22.3399L24.6614 23.9002L26.1896 23.6965C31.0442 23.0495 32.707 24.1492 32.707 25.726C32.707 27.7161 28.895 27.8803 25.694 25.5839C24.9737 25.0671 24.4791 24.5539 24.4791 24.5539C24.4791 24.5539 22.4737 24.9709 21.4864 25.2427C20.4672 25.5233 19.9588 25.699 18.4659 26.2137C18.4659 26.2137 17.9421 26.9907 17.6008 27.5555C16.3309 29.6569 14.8482 31.3985 13.7893 32.0323C12.6037 32.742 11.3608 32.7904 10.735 32.1512ZM12.6722 31.4443C13.3661 31.0063 14.7704 29.3097 15.7426 27.735L16.1362 27.0975L14.344 28.0179C11.576 29.4395 10.3097 30.7793 10.9682 31.5897C11.3381 32.0449 11.7806 32.0072 12.6722 31.4443ZM30.6521 26.2894C31.3307 25.8038 31.2322 24.8254 30.465 24.4309C29.8678 24.1239 29.3866 24.0608 27.8354 24.0842C26.8822 24.1506 25.3494 24.3468 25.0896 24.4065C25.0896 24.4065 25.9316 25.0009 26.3055 25.2194C26.8032 25.5097 28.0126 26.0487 28.8955 26.3247C29.7665 26.5971 30.2703 26.5684 30.6521 26.2894V26.2894ZM23.4226 23.2202C23.0119 22.7792 22.3135 21.8588 21.8706 21.1748C21.2914 20.3989 21.0009 19.8515 21.0009 19.8515C21.0009 19.8515 20.5776 21.2424 20.2302 22.0793L19.1466 24.8151L18.8325 25.4356C18.8325 25.4356 20.5027 24.8763 21.3525 24.6495C22.2526 24.4094 24.0793 24.0425 24.0793 24.0425L23.4226 23.2202ZM21.0928 13.677C21.1976 12.779 21.242 11.8824 20.9596 11.4302C20.1761 10.5553 19.2304 11.2849 19.3906 13.3648C19.4445 14.0645 19.6147 15.2606 19.8422 15.9979L20.2559 17.3383L20.547 16.3287C20.7071 15.7735 20.9527 14.5802 21.0928 13.677Z" fill="#FF2116"/>
<path d="M12.8342 37.9897H14.8383C15.4786 37.9897 15.9984 38.0523 16.3977 38.1775C16.7969 38.2986 17.1329 38.5711 17.4056 38.9951C17.6783 39.415 17.8147 39.9217 17.8147 40.5152C17.8147 41.0602 17.704 41.5286 17.4827 41.9202C17.2613 42.3118 16.9629 42.5945 16.5874 42.7681C16.2158 42.9417 15.6427 43.0285 14.8679 43.0285H14.1742V46.2564H12.8342V37.9897ZM14.1742 39.0496V41.9323H14.8383C15.4312 41.9323 15.8403 41.8193 16.0656 41.5932C16.2949 41.3671 16.4095 40.9997 16.4095 40.4909C16.4095 40.1114 16.3344 39.8046 16.1842 39.5704C16.034 39.3322 15.868 39.1868 15.6862 39.1344C15.5083 39.0778 15.2257 39.0495 14.8383 39.0495L14.1742 39.0496Z" fill="#2C2C2C"/>
<path d="M18.8406 37.9897H20.6608C21.5423 37.9897 22.2459 38.1492 22.7716 38.4682C23.3013 38.7871 23.7005 39.2615 23.9693 39.8914C24.242 40.5212 24.3784 41.2197 24.3784 41.9868C24.3784 42.7943 24.2559 43.515 24.0108 44.1489C23.7697 44.7787 23.3981 45.2874 22.8961 45.675C22.3981 46.0626 21.6866 46.2564 20.7616 46.2564H18.8406V37.9897ZM20.1806 39.0859V45.1603H20.7379C21.5166 45.1603 22.0819 44.8857 22.4336 44.3366C22.7854 43.7835 22.9613 43.0466 22.9613 42.1261C22.9613 40.0993 22.2202 39.0859 20.7379 39.0859H20.1806Z" fill="#2C2C2C"/>
<path d="M25.6648 37.9897H30.1591V39.0859H27.0048V41.5568H29.5306V42.653H27.0048V46.2564H25.6648V37.9897Z" fill="#2C2C2C"/>
</svg>
