<svg width="58" height="54" viewBox="0 0 58 54" fill="none" xmlns="http://www.w3.org/2000/svg">
<path d="M35.0697 29.7L31.0231 0H30.721C16.0069 0.0429944 4.08934 11.9708 4.04639 26.6976V27L35.0697 29.7Z" fill="#ED6C47"/>
<path d="M31.3253 0H31.0232V27L44.5116 32.4L57.9999 27V26.6976C57.957 11.9708 46.0395 0.0429944 31.3253 0Z" fill="#FF8F6B"/>
<path d="M57.9999 27V27.297C57.9576 42.0271 46.0373 53.9577 31.3199 54H30.7264C16.009 53.9577 4.08862 42.0271 4.04639 27.297V27H57.9999Z" fill="#D35230"/>
<path opacity="0.1" d="M32.372 13.2706V42.0796C32.3653 43.0806 31.7592 43.9799 30.8343 44.361C30.5398 44.4857 30.2234 44.55 29.9036 44.55H10.4129C10.0353 44.118 9.67108 43.659 9.33386 43.2C5.89742 38.6119 4.04195 33.0312 4.04642 27.2971V26.7031C4.03853 21.531 5.54881 16.4705 8.38967 12.15C8.68642 11.691 8.99664 11.232 9.33386 10.8H29.9036C31.2626 10.8104 32.3617 11.9104 32.372 13.2706Z" fill="black"/>
<path opacity="0.2" d="M31.0232 14.6207V43.4297C31.0231 43.7497 30.9589 44.0664 30.8344 44.3611C30.4535 45.2868 29.555 45.8934 28.5548 45.9002H11.6404C11.2136 45.4665 10.8041 45.0162 10.4129 44.5501C10.0353 44.1181 9.67108 43.6592 9.33386 43.2002C5.89742 38.612 4.04195 33.0313 4.04642 27.2971V26.7031C4.03853 21.5311 5.54881 16.4706 8.38967 12.1501H28.5548C29.9138 12.1604 31.0129 13.2605 31.0232 14.6207Z" fill="black"/>
<path opacity="0.2" d="M31.0232 14.6206V40.7296C31.0129 42.0898 29.9138 43.1898 28.5548 43.2001H9.33386C5.89742 38.612 4.04195 33.0313 4.04642 27.2971V26.7031C4.03853 21.5311 5.54881 16.4706 8.38967 12.1501H28.5548C29.9138 12.1604 31.0129 13.2605 31.0232 14.6206Z" fill="black"/>
<path opacity="0.2" d="M29.6743 14.6206V40.7296C29.6641 42.0898 28.5649 43.1898 27.206 43.2001H9.33386C5.89742 38.612 4.04195 33.0313 4.04642 27.2971V26.7031C4.03853 21.5311 5.54881 16.4706 8.38967 12.1501H27.2059C28.5649 12.1604 29.6641 13.2605 29.6743 14.6206Z" fill="black"/>
<path d="M2.47241 12.1501H27.202C28.5675 12.1501 29.6744 13.2581 29.6744 14.6247V39.3756C29.6744 40.7422 28.5674 41.8501 27.202 41.8501H2.47241C1.10695 41.8501 0 40.7422 0 39.3756V14.6247C0 13.2581 1.10695 12.1501 2.47241 12.1501Z" fill="url(#paint0_linear)"/>
<path d="M15.1069 18.7501C16.7167 18.6413 18.3126 19.1093 19.6093 20.0704C20.6908 21.0367 21.2687 22.4468 21.1766 23.8949C21.1943 24.9016 20.9263 25.8926 20.4038 26.7529C19.8748 27.5983 19.1126 28.2726 18.2092 28.6942C17.1764 29.1749 16.0473 29.4123 14.9086 29.3881H11.7806V35.2065H8.57715V18.7501H15.1069ZM11.778 26.8744H14.535C15.409 26.9386 16.2763 26.6797 16.9724 26.1467C17.5481 25.594 17.8498 24.8145 17.7965 24.0178C17.7965 22.2043 16.7435 21.2975 14.6375 21.2975H11.778V26.8744H11.778Z" fill="white"/>
<defs>
<linearGradient id="paint0_linear" x1="5.15505" y1="10.2166" x2="24.5444" y2="43.7692" gradientUnits="userSpaceOnUse">
<stop stop-color="#CA4C28"/>
<stop offset="0.5" stop-color="#C5401E"/>
<stop offset="1" stop-color="#B62F14"/>
</linearGradient>
</defs>
</svg>
