<svg width="1920" height="4981" viewBox="0 0 1920 4981" fill="none" xmlns="http://www.w3.org/2000/svg">
<g opacity="0.1">
<path d="M47.9998 -75V117" stroke="black" stroke-width="1.5"/>
<path d="M144.001 -75V117" stroke="black" stroke-width="1.5"/>
<path d="M192 68.9998L-0.000244141 68.9997" stroke="black" stroke-width="1.5"/>
<path d="M240 -75V117" stroke="black" stroke-width="1.5"/>
<path d="M336 -75V117" stroke="black" stroke-width="1.5"/>
<path d="M384 68.9998L192 68.9997" stroke="black" stroke-width="1.5"/>
<path d="M432 -75V117" stroke="black" stroke-width="1.5"/>
<path d="M528 -75V117" stroke="black" stroke-width="1.5"/>
<path d="M576 68.9998L384 68.9997" stroke="black" stroke-width="1.5"/>
<path d="M624 -75V117" stroke="black" stroke-width="1.5"/>
<path d="M720 -75V117" stroke="black" stroke-width="1.5"/>
<path d="M768 68.9998L576 68.9997" stroke="black" stroke-width="1.5"/>
<path d="M815.999 -75V117" stroke="black" stroke-width="1.5"/>
<path d="M912 -75V117" stroke="black" stroke-width="1.5"/>
<path d="M960 68.9998L768 68.9997" stroke="black" stroke-width="1.5"/>
<path d="M1008 -75V117" stroke="black" stroke-width="1.5"/>
<path d="M1104 -75V117" stroke="black" stroke-width="1.5"/>
<path d="M1152 68.9998L960 68.9997" stroke="black" stroke-width="1.5"/>
<path d="M1200 -75V117" stroke="black" stroke-width="1.5"/>
<path d="M1296 -75V117" stroke="black" stroke-width="1.5"/>
<path d="M1344 68.9998L1152 68.9997" stroke="black" stroke-width="1.5"/>
<path d="M1392 -75V117" stroke="black" stroke-width="1.5"/>
<path d="M1488 -75V117" stroke="black" stroke-width="1.5"/>
<path d="M1536 68.9998L1344 68.9997" stroke="black" stroke-width="1.5"/>
<path d="M1584 -75V117" stroke="black" stroke-width="1.5"/>
<path d="M1680 -75V117" stroke="black" stroke-width="1.5"/>
<path d="M1728 68.9998L1536 68.9997" stroke="black" stroke-width="1.5"/>
<path d="M1776 -75V117" stroke="black" stroke-width="1.5"/>
<path d="M1872 -75V117" stroke="black" stroke-width="1.5"/>
<path d="M1920 68.9998L1728 68.9997" stroke="black" stroke-width="1.5"/>
<path d="M47.9998 117V309" stroke="black" stroke-width="1.5"/>
<path d="M144.001 117V309" stroke="black" stroke-width="1.5"/>
<path d="M192 165L-0.000244141 165" stroke="black" stroke-width="1.5"/>
<path d="M192 260.998L-0.000244141 260.998" stroke="black" stroke-width="1.5"/>
<path d="M240 117V309" stroke="black" stroke-width="1.5"/>
<path d="M336 117V309" stroke="black" stroke-width="1.5"/>
<path d="M384 165L192 165" stroke="black" stroke-width="1.5"/>
<path d="M384 260.998L192 260.998" stroke="black" stroke-width="1.5"/>
<path d="M432 117V309" stroke="black" stroke-width="1.5"/>
<path d="M528 117V309" stroke="black" stroke-width="1.5"/>
<path d="M576 165L384 165" stroke="black" stroke-width="1.5"/>
<path d="M576 260.998L384 260.998" stroke="black" stroke-width="1.5"/>
<path d="M624 117V309" stroke="black" stroke-width="1.5"/>
<path d="M720 117V309" stroke="black" stroke-width="1.5"/>
<path d="M768 165L576 165" stroke="black" stroke-width="1.5"/>
<path d="M768 260.998L576 260.998" stroke="black" stroke-width="1.5"/>
<path d="M815.999 117V309" stroke="black" stroke-width="1.5"/>
<path d="M912 117V309" stroke="black" stroke-width="1.5"/>
<path d="M960 165L768 165" stroke="black" stroke-width="1.5"/>
<path d="M960 260.998L768 260.998" stroke="black" stroke-width="1.5"/>
<path d="M1008 117V309" stroke="black" stroke-width="1.5"/>
<path d="M1104 117V309" stroke="black" stroke-width="1.5"/>
<path d="M1152 165L960 165" stroke="black" stroke-width="1.5"/>
<path d="M1152 260.998L960 260.998" stroke="black" stroke-width="1.5"/>
<path d="M1200 117V309" stroke="black" stroke-width="1.5"/>
<path d="M1296 117V309" stroke="black" stroke-width="1.5"/>
<path d="M1344 165L1152 165" stroke="black" stroke-width="1.5"/>
<path d="M1344 260.998L1152 260.998" stroke="black" stroke-width="1.5"/>
<path d="M1392 117V309" stroke="black" stroke-width="1.5"/>
<path d="M1488 117V309" stroke="black" stroke-width="1.5"/>
<path d="M1536 165L1344 165" stroke="black" stroke-width="1.5"/>
<path d="M1536 260.998L1344 260.998" stroke="black" stroke-width="1.5"/>
<path d="M1584 117V309" stroke="black" stroke-width="1.5"/>
<path d="M1680 117V309" stroke="black" stroke-width="1.5"/>
<path d="M1728 165L1536 165" stroke="black" stroke-width="1.5"/>
<path d="M1728 260.998L1536 260.998" stroke="black" stroke-width="1.5"/>
<path d="M1776 117V309" stroke="black" stroke-width="1.5"/>
<path d="M1872 117V309" stroke="black" stroke-width="1.5"/>
<path d="M1920 165L1728 165" stroke="black" stroke-width="1.5"/>
<path d="M1920 260.998L1728 260.998" stroke="black" stroke-width="1.5"/>
<path d="M47.9998 309V501" stroke="black" stroke-width="1.5"/>
<path d="M144.001 309V501" stroke="black" stroke-width="1.5"/>
<path d="M192 357L-0.000244141 357" stroke="black" stroke-width="1.5"/>
<path d="M192 453L-0.000244141 453" stroke="black" stroke-width="1.5"/>
<path d="M240 309V501" stroke="black" stroke-width="1.5"/>
<path d="M336 309V501" stroke="black" stroke-width="1.5"/>
<path d="M384 357L192 357" stroke="black" stroke-width="1.5"/>
<path d="M384 453L192 453" stroke="black" stroke-width="1.5"/>
<path d="M432 309V501" stroke="black" stroke-width="1.5"/>
<path d="M528 309V501" stroke="black" stroke-width="1.5"/>
<path d="M576 357L384 357" stroke="black" stroke-width="1.5"/>
<path d="M576 453L384 453" stroke="black" stroke-width="1.5"/>
<path d="M624 309V501" stroke="black" stroke-width="1.5"/>
<path d="M720 309V501" stroke="black" stroke-width="1.5"/>
<path d="M768 357L576 357" stroke="black" stroke-width="1.5"/>
<path d="M768 453L576 453" stroke="black" stroke-width="1.5"/>
<path d="M815.999 309V501" stroke="black" stroke-width="1.5"/>
<path d="M912 309V501" stroke="black" stroke-width="1.5"/>
<path d="M960 357L768 357" stroke="black" stroke-width="1.5"/>
<path d="M960 453L768 453" stroke="black" stroke-width="1.5"/>
<path d="M1008 309V501" stroke="black" stroke-width="1.5"/>
<path d="M1104 309V501" stroke="black" stroke-width="1.5"/>
<path d="M1152 357L960 357" stroke="black" stroke-width="1.5"/>
<path d="M1152 453L960 453" stroke="black" stroke-width="1.5"/>
<path d="M1200 309V501" stroke="black" stroke-width="1.5"/>
<path d="M1296 309V501" stroke="black" stroke-width="1.5"/>
<path d="M1344 357L1152 357" stroke="black" stroke-width="1.5"/>
<path d="M1344 453L1152 453" stroke="black" stroke-width="1.5"/>
<path d="M1392 309V501" stroke="black" stroke-width="1.5"/>
<path d="M1488 309V501" stroke="black" stroke-width="1.5"/>
<path d="M1536 357L1344 357" stroke="black" stroke-width="1.5"/>
<path d="M1536 453L1344 453" stroke="black" stroke-width="1.5"/>
<path d="M1584 309V501" stroke="black" stroke-width="1.5"/>
<path d="M1680 309V501" stroke="black" stroke-width="1.5"/>
<path d="M1728 357L1536 357" stroke="black" stroke-width="1.5"/>
<path d="M1728 453L1536 453" stroke="black" stroke-width="1.5"/>
<path d="M1776 309V501" stroke="black" stroke-width="1.5"/>
<path d="M1872 309V501" stroke="black" stroke-width="1.5"/>
<path d="M1920 357L1728 357" stroke="black" stroke-width="1.5"/>
<path d="M1920 453L1728 453" stroke="black" stroke-width="1.5"/>
<path d="M47.9998 501.001V693.001" stroke="black" stroke-width="1.5"/>
<path d="M144.001 501.001V693.001" stroke="black" stroke-width="1.5"/>
<path d="M192 549.004L-0.000244141 549.004" stroke="black" stroke-width="1.5"/>
<path d="M192 645L-0.000244141 645" stroke="black" stroke-width="1.5"/>
<path d="M240 501.001V693.001" stroke="black" stroke-width="1.5"/>
<path d="M336 501.001V693.001" stroke="black" stroke-width="1.5"/>
<path d="M384 549.004L192 549.004" stroke="black" stroke-width="1.5"/>
<path d="M384 645L192 645" stroke="black" stroke-width="1.5"/>
<path d="M432 501.001V693.001" stroke="black" stroke-width="1.5"/>
<path d="M528 501.001V693.001" stroke="black" stroke-width="1.5"/>
<path d="M576 549.004L384 549.004" stroke="black" stroke-width="1.5"/>
<path d="M576 645L384 645" stroke="black" stroke-width="1.5"/>
<path d="M624 501.001V693.001" stroke="black" stroke-width="1.5"/>
<path d="M720 501.001V693.001" stroke="black" stroke-width="1.5"/>
<path d="M768 549.004L576 549.004" stroke="black" stroke-width="1.5"/>
<path d="M768 645L576 645" stroke="black" stroke-width="1.5"/>
<path d="M815.999 501.001V693.001" stroke="black" stroke-width="1.5"/>
<path d="M912 501.001V693.001" stroke="black" stroke-width="1.5"/>
<path d="M960 549.004L768 549.004" stroke="black" stroke-width="1.5"/>
<path d="M960 645L768 645" stroke="black" stroke-width="1.5"/>
<path d="M1008 501.001V693.001" stroke="black" stroke-width="1.5"/>
<path d="M1104 501.001V693.001" stroke="black" stroke-width="1.5"/>
<path d="M1152 549.004L960 549.004" stroke="black" stroke-width="1.5"/>
<path d="M1152 645L960 645" stroke="black" stroke-width="1.5"/>
<path d="M1200 501.001V693.001" stroke="black" stroke-width="1.5"/>
<path d="M1296 501.001V693.001" stroke="black" stroke-width="1.5"/>
<path d="M1344 549.004L1152 549.004" stroke="black" stroke-width="1.5"/>
<path d="M1344 645L1152 645" stroke="black" stroke-width="1.5"/>
<path d="M1392 501.001V693.001" stroke="black" stroke-width="1.5"/>
<path d="M1488 501.001V693.001" stroke="black" stroke-width="1.5"/>
<path d="M1536 549.004L1344 549.004" stroke="black" stroke-width="1.5"/>
<path d="M1536 645L1344 645" stroke="black" stroke-width="1.5"/>
<path d="M1584 501.001V693.001" stroke="black" stroke-width="1.5"/>
<path d="M1680 501.001V693.001" stroke="black" stroke-width="1.5"/>
<path d="M1728 549.004L1536 549.004" stroke="black" stroke-width="1.5"/>
<path d="M1728 645L1536 645" stroke="black" stroke-width="1.5"/>
<path d="M1776 501.001V693.001" stroke="black" stroke-width="1.5"/>
<path d="M1872 501.001V693.001" stroke="black" stroke-width="1.5"/>
<path d="M1920 549.004L1728 549.004" stroke="black" stroke-width="1.5"/>
<path d="M1920 645L1728 645" stroke="black" stroke-width="1.5"/>
<path d="M47.9998 692.999V884.999" stroke="black" stroke-width="1.5"/>
<path d="M144.001 692.999V884.999" stroke="black" stroke-width="1.5"/>
<path d="M192 740.996L-0.000244141 740.996" stroke="black" stroke-width="1.5"/>
<path d="M192 836.998L-0.000244141 836.998" stroke="black" stroke-width="1.5"/>
<path d="M240 692.999V884.999" stroke="black" stroke-width="1.5"/>
<path d="M336 692.999V884.999" stroke="black" stroke-width="1.5"/>
<path d="M384 740.996L192 740.996" stroke="black" stroke-width="1.5"/>
<path d="M384 836.998L192 836.998" stroke="black" stroke-width="1.5"/>
<path d="M432 692.999V884.999" stroke="black" stroke-width="1.5"/>
<path d="M528 692.999V884.999" stroke="black" stroke-width="1.5"/>
<path d="M576 740.996L384 740.996" stroke="black" stroke-width="1.5"/>
<path d="M576 836.998L384 836.998" stroke="black" stroke-width="1.5"/>
<path d="M624 692.999V884.999" stroke="black" stroke-width="1.5"/>
<path d="M720 692.999V884.999" stroke="black" stroke-width="1.5"/>
<path d="M768 740.996L576 740.996" stroke="black" stroke-width="1.5"/>
<path d="M768 836.998L576 836.998" stroke="black" stroke-width="1.5"/>
<path d="M815.999 692.999V884.999" stroke="black" stroke-width="1.5"/>
<path d="M912 692.999V884.999" stroke="black" stroke-width="1.5"/>
<path d="M960 740.996L768 740.996" stroke="black" stroke-width="1.5"/>
<path d="M960 836.998L768 836.998" stroke="black" stroke-width="1.5"/>
<path d="M1008 692.999V884.999" stroke="black" stroke-width="1.5"/>
<path d="M1104 692.999V884.999" stroke="black" stroke-width="1.5"/>
<path d="M1152 740.996L960 740.996" stroke="black" stroke-width="1.5"/>
<path d="M1152 836.998L960 836.998" stroke="black" stroke-width="1.5"/>
<path d="M1200 692.999V884.999" stroke="black" stroke-width="1.5"/>
<path d="M1296 692.999V884.999" stroke="black" stroke-width="1.5"/>
<path d="M1344 740.996L1152 740.996" stroke="black" stroke-width="1.5"/>
<path d="M1344 836.998L1152 836.998" stroke="black" stroke-width="1.5"/>
<path d="M1392 692.999V884.999" stroke="black" stroke-width="1.5"/>
<path d="M1488 692.999V884.999" stroke="black" stroke-width="1.5"/>
<path d="M1536 740.996L1344 740.996" stroke="black" stroke-width="1.5"/>
<path d="M1536 836.998L1344 836.998" stroke="black" stroke-width="1.5"/>
<path d="M1584 692.999V884.999" stroke="black" stroke-width="1.5"/>
<path d="M1680 692.999V884.999" stroke="black" stroke-width="1.5"/>
<path d="M1728 740.996L1536 740.996" stroke="black" stroke-width="1.5"/>
<path d="M1728 836.998L1536 836.998" stroke="black" stroke-width="1.5"/>
<path d="M1776 692.999V884.999" stroke="black" stroke-width="1.5"/>
<path d="M1872 692.999V884.999" stroke="black" stroke-width="1.5"/>
<path d="M1920 740.996L1728 740.996" stroke="black" stroke-width="1.5"/>
<path d="M1920 836.998L1728 836.998" stroke="black" stroke-width="1.5"/>
<path d="M47.9998 885V1077" stroke="black" stroke-width="1.5"/>
<path d="M144.001 885V1077" stroke="black" stroke-width="1.5"/>
<path d="M192 932.997L-0.000244141 932.997" stroke="black" stroke-width="1.5"/>
<path d="M192 1029L-0.000244141 1029" stroke="black" stroke-width="1.5"/>
<path d="M240 885V1077" stroke="black" stroke-width="1.5"/>
<path d="M336 885V1077" stroke="black" stroke-width="1.5"/>
<path d="M384 932.997L192 932.997" stroke="black" stroke-width="1.5"/>
<path d="M384 1029L192 1029" stroke="black" stroke-width="1.5"/>
<path d="M432 885V1077" stroke="black" stroke-width="1.5"/>
<path d="M528 885V1077" stroke="black" stroke-width="1.5"/>
<path d="M576 932.997L384 932.997" stroke="black" stroke-width="1.5"/>
<path d="M576 1029L384 1029" stroke="black" stroke-width="1.5"/>
<path d="M624 885V1077" stroke="black" stroke-width="1.5"/>
<path d="M720 885V1077" stroke="black" stroke-width="1.5"/>
<path d="M768 932.997L576 932.997" stroke="black" stroke-width="1.5"/>
<path d="M768 1029L576 1029" stroke="black" stroke-width="1.5"/>
<path d="M815.999 885V1077" stroke="black" stroke-width="1.5"/>
<path d="M912 885V1077" stroke="black" stroke-width="1.5"/>
<path d="M960 932.997L768 932.997" stroke="black" stroke-width="1.5"/>
<path d="M960 1029L768 1029" stroke="black" stroke-width="1.5"/>
<path d="M1008 885V1077" stroke="black" stroke-width="1.5"/>
<path d="M1104 885V1077" stroke="black" stroke-width="1.5"/>
<path d="M1152 932.997L960 932.997" stroke="black" stroke-width="1.5"/>
<path d="M1152 1029L960 1029" stroke="black" stroke-width="1.5"/>
<path d="M1200 885V1077" stroke="black" stroke-width="1.5"/>
<path d="M1296 885V1077" stroke="black" stroke-width="1.5"/>
<path d="M1344 932.997L1152 932.997" stroke="black" stroke-width="1.5"/>
<path d="M1344 1029L1152 1029" stroke="black" stroke-width="1.5"/>
<path d="M1392 885V1077" stroke="black" stroke-width="1.5"/>
<path d="M1488 885V1077" stroke="black" stroke-width="1.5"/>
<path d="M1536 932.997L1344 932.997" stroke="black" stroke-width="1.5"/>
<path d="M1536 1029L1344 1029" stroke="black" stroke-width="1.5"/>
<path d="M1584 885V1077" stroke="black" stroke-width="1.5"/>
<path d="M1680 885V1077" stroke="black" stroke-width="1.5"/>
<path d="M1728 932.997L1536 932.997" stroke="black" stroke-width="1.5"/>
<path d="M1728 1029L1536 1029" stroke="black" stroke-width="1.5"/>
<path d="M1776 885V1077" stroke="black" stroke-width="1.5"/>
<path d="M1872 885V1077" stroke="black" stroke-width="1.5"/>
<path d="M1920 932.997L1728 932.997" stroke="black" stroke-width="1.5"/>
<path d="M1920 1029L1728 1029" stroke="black" stroke-width="1.5"/>
<path d="M47.9998 1077V1269" stroke="black" stroke-width="1.5"/>
<path d="M144.001 1077V1269" stroke="black" stroke-width="1.5"/>
<path d="M192 1125L-0.000244141 1125" stroke="black" stroke-width="1.5"/>
<path d="M192 1221L-0.000244141 1221" stroke="black" stroke-width="1.5"/>
<path d="M240 1077V1269" stroke="black" stroke-width="1.5"/>
<path d="M336 1077V1269" stroke="black" stroke-width="1.5"/>
<path d="M384 1125L192 1125" stroke="black" stroke-width="1.5"/>
<path d="M384 1221L192 1221" stroke="black" stroke-width="1.5"/>
<path d="M432 1077V1269" stroke="black" stroke-width="1.5"/>
<path d="M528 1077V1269" stroke="black" stroke-width="1.5"/>
<path d="M576 1125L384 1125" stroke="black" stroke-width="1.5"/>
<path d="M576 1221L384 1221" stroke="black" stroke-width="1.5"/>
<path d="M624 1077V1269" stroke="black" stroke-width="1.5"/>
<path d="M720 1077V1269" stroke="black" stroke-width="1.5"/>
<path d="M768 1125L576 1125" stroke="black" stroke-width="1.5"/>
<path d="M768 1221L576 1221" stroke="black" stroke-width="1.5"/>
<path d="M815.999 1077V1269" stroke="black" stroke-width="1.5"/>
<path d="M912 1077V1269" stroke="black" stroke-width="1.5"/>
<path d="M960 1125L768 1125" stroke="black" stroke-width="1.5"/>
<path d="M960 1221L768 1221" stroke="black" stroke-width="1.5"/>
<path d="M1008 1077V1269" stroke="black" stroke-width="1.5"/>
<path d="M1104 1077V1269" stroke="black" stroke-width="1.5"/>
<path d="M1152 1125L960 1125" stroke="black" stroke-width="1.5"/>
<path d="M1152 1221L960 1221" stroke="black" stroke-width="1.5"/>
<path d="M1200 1077V1269" stroke="black" stroke-width="1.5"/>
<path d="M1296 1077V1269" stroke="black" stroke-width="1.5"/>
<path d="M1344 1125L1152 1125" stroke="black" stroke-width="1.5"/>
<path d="M1344 1221L1152 1221" stroke="black" stroke-width="1.5"/>
<path d="M1392 1077V1269" stroke="black" stroke-width="1.5"/>
<path d="M1488 1077V1269" stroke="black" stroke-width="1.5"/>
<path d="M1536 1125L1344 1125" stroke="black" stroke-width="1.5"/>
<path d="M1536 1221L1344 1221" stroke="black" stroke-width="1.5"/>
<path d="M1584 1077V1269" stroke="black" stroke-width="1.5"/>
<path d="M1680 1077V1269" stroke="black" stroke-width="1.5"/>
<path d="M1728 1125L1536 1125" stroke="black" stroke-width="1.5"/>
<path d="M1728 1221L1536 1221" stroke="black" stroke-width="1.5"/>
<path d="M1776 1077V1269" stroke="black" stroke-width="1.5"/>
<path d="M1872 1077V1269" stroke="black" stroke-width="1.5"/>
<path d="M1920 1125L1728 1125" stroke="black" stroke-width="1.5"/>
<path d="M1920 1221L1728 1221" stroke="black" stroke-width="1.5"/>
<path d="M47.9998 1269V1461" stroke="black" stroke-width="1.5"/>
<path d="M144.001 1269V1461" stroke="black" stroke-width="1.5"/>
<path d="M192 1317L-0.000244141 1317" stroke="black" stroke-width="1.5"/>
<path d="M192 1413L-0.000244141 1413" stroke="black" stroke-width="1.5"/>
<path d="M240 1269V1461" stroke="black" stroke-width="1.5"/>
<path d="M336 1269V1461" stroke="black" stroke-width="1.5"/>
<path d="M384 1317L192 1317" stroke="black" stroke-width="1.5"/>
<path d="M384 1413L192 1413" stroke="black" stroke-width="1.5"/>
<path d="M432 1269V1461" stroke="black" stroke-width="1.5"/>
<path d="M528 1269V1461" stroke="black" stroke-width="1.5"/>
<path d="M576 1317L384 1317" stroke="black" stroke-width="1.5"/>
<path d="M576 1413L384 1413" stroke="black" stroke-width="1.5"/>
<path d="M624 1269V1461" stroke="black" stroke-width="1.5"/>
<path d="M720 1269V1461" stroke="black" stroke-width="1.5"/>
<path d="M768 1317L576 1317" stroke="black" stroke-width="1.5"/>
<path d="M768 1413L576 1413" stroke="black" stroke-width="1.5"/>
<path d="M815.999 1269V1461" stroke="black" stroke-width="1.5"/>
<path d="M912 1269V1461" stroke="black" stroke-width="1.5"/>
<path d="M960 1317L768 1317" stroke="black" stroke-width="1.5"/>
<path d="M960 1413L768 1413" stroke="black" stroke-width="1.5"/>
<path d="M1008 1269V1461" stroke="black" stroke-width="1.5"/>
<path d="M1104 1269V1461" stroke="black" stroke-width="1.5"/>
<path d="M1152 1317L960 1317" stroke="black" stroke-width="1.5"/>
<path d="M1152 1413L960 1413" stroke="black" stroke-width="1.5"/>
<path d="M1200 1269V1461" stroke="black" stroke-width="1.5"/>
<path d="M1296 1269V1461" stroke="black" stroke-width="1.5"/>
<path d="M1344 1317L1152 1317" stroke="black" stroke-width="1.5"/>
<path d="M1344 1413L1152 1413" stroke="black" stroke-width="1.5"/>
<path d="M1392 1269V1461" stroke="black" stroke-width="1.5"/>
<path d="M1488 1269V1461" stroke="black" stroke-width="1.5"/>
<path d="M1536 1317L1344 1317" stroke="black" stroke-width="1.5"/>
<path d="M1536 1413L1344 1413" stroke="black" stroke-width="1.5"/>
<path d="M1584 1269V1461" stroke="black" stroke-width="1.5"/>
<path d="M1680 1269V1461" stroke="black" stroke-width="1.5"/>
<path d="M1728 1317L1536 1317" stroke="black" stroke-width="1.5"/>
<path d="M1728 1413L1536 1413" stroke="black" stroke-width="1.5"/>
<path d="M1776 1269V1461" stroke="black" stroke-width="1.5"/>
<path d="M1872 1269V1461" stroke="black" stroke-width="1.5"/>
<path d="M1920 1317L1728 1317" stroke="black" stroke-width="1.5"/>
<path d="M1920 1413L1728 1413" stroke="black" stroke-width="1.5"/>
<path d="M47.9998 1461V1605" stroke="black" stroke-width="1.5"/>
<path d="M144.001 1461V1605" stroke="black" stroke-width="1.5"/>
<path d="M192 1509L-0.000244141 1509" stroke="black" stroke-width="1.5"/>
<path d="M240 1461V1605" stroke="black" stroke-width="1.5"/>
<path d="M336 1461V1605" stroke="black" stroke-width="1.5"/>
<path d="M384 1509L192 1509" stroke="black" stroke-width="1.5"/>
<path d="M432 1461V1605" stroke="black" stroke-width="1.5"/>
<path d="M528 1461V1605" stroke="black" stroke-width="1.5"/>
<path d="M576 1509L384 1509" stroke="black" stroke-width="1.5"/>
<path d="M624 1461V1605" stroke="black" stroke-width="1.5"/>
<path d="M720 1461V1605" stroke="black" stroke-width="1.5"/>
<path d="M768 1509L576 1509" stroke="black" stroke-width="1.5"/>
<path d="M815.999 1461V1605" stroke="black" stroke-width="1.5"/>
<path d="M912.003 1460.45L912.003 1605" stroke="black" stroke-width="1.5"/>
<path d="M960 1509L768 1509" stroke="black" stroke-width="1.5"/>
<path d="M1008 1461L1008 4981" stroke="black" stroke-width="1.5"/>
<path d="M1104 1461L1104 4558" stroke="black" stroke-width="1.5"/>
<path d="M1152 1509L960 1509" stroke="black" stroke-width="1.5"/>
<path d="M1200 1461L1200 4558" stroke="black" stroke-width="1.5"/>
<path d="M1296 1461L1296 4558" stroke="black" stroke-width="1.5"/>
<path d="M1344 1509L1152 1509" stroke="black" stroke-width="1.5"/>
<path d="M1392 1461L1392 4558" stroke="black" stroke-width="1.5"/>
<path d="M1488 1461L1488 4558" stroke="black" stroke-width="1.5"/>
<path d="M1536 1509L1344 1509" stroke="black" stroke-width="1.5"/>
<path d="M1584 1461L1584 4558" stroke="black" stroke-width="1.5"/>
<path d="M1680 1460L1680 4558" stroke="black" stroke-width="1.5"/>
<path d="M1728 1509L1536 1509" stroke="black" stroke-width="1.5"/>
<path d="M1776 1461V4558" stroke="black" stroke-width="1.5"/>
<path d="M1872 1461V4558" stroke="black" stroke-width="1.5"/>
<path d="M1920 1509L1728 1509" stroke="black" stroke-width="1.5"/>
<path d="M192 1605L-0.000244141 1605" stroke="black" stroke-width="1.5"/>
<path d="M384 1605L192 1605" stroke="black" stroke-width="1.5"/>
<path d="M576 1605L384 1605" stroke="black" stroke-width="1.5"/>
<path d="M768 1605L576 1605" stroke="black" stroke-width="1.5"/>
<path d="M960 1605L768 1605" stroke="black" stroke-width="1.5"/>
<path d="M1152 1605L960 1605" stroke="black" stroke-width="1.5"/>
<path d="M1344 1605L1152 1605" stroke="black" stroke-width="1.5"/>
<path d="M1536 1605L1344 1605" stroke="black" stroke-width="1.5"/>
<path d="M1728 1605L1536 1605" stroke="black" stroke-width="1.5"/>
<path d="M1920 1605L1728 1605" stroke="black" stroke-width="1.5"/>
</g>
</svg>
