<svg width="624" height="47" viewBox="0 0 624 47" fill="none" xmlns="http://www.w3.org/2000/svg">
<path d="M394.832 40.3237C394.832 37.0201 397.326 34.3611 400.75 34.3611C404.234 34.3611 406.846 37.0201 406.846 40.3237C406.846 43.6273 404.234 46.2863 400.75 46.2863C397.326 46.2661 394.832 43.6273 394.832 40.3237Z" fill="black"/>
<path d="M412.27 3.44043H424.224V20.1397L436.694 3.44043H449.084L433.903 23.0203L449.896 45.6217H436.159L424.224 27.9757V45.6217H412.27V3.44043Z" fill="black"/>
<path d="M452.508 1.20435H462.879V19.7367C464.502 16.554 467.808 13.9554 472.855 13.9554C478.714 13.9554 482.771 17.682 482.771 25.5784V45.6417H472.4V27.7137C472.4 24.2288 471.074 22.5166 468.045 22.5166C464.977 22.5166 462.879 24.4101 462.879 28.3583V45.6417H452.508V1.20435Z" fill="black"/>
<path d="M486.017 37.0605C486.017 29.8087 492.054 26.9684 502.128 26.9684H505.018V26.2634C505.018 23.3224 504.325 21.3684 501.02 21.3684C498.17 21.3684 497.141 23.0806 496.903 25.0346H487.165C487.62 17.6015 493.36 13.9353 501.653 13.9353C510.006 13.9353 515.33 17.4202 515.33 25.6188V45.6216H505.236V42.0159C503.791 44.2518 501.119 46.3267 496.25 46.3267C490.827 46.3267 486.017 43.6274 486.017 37.0605ZM505.038 34.8245V32.931H502.306C498.13 32.931 496.27 33.7569 496.27 36.295C496.27 38.0677 497.437 39.1957 499.872 39.1957C502.841 39.1957 505.038 37.4835 505.038 34.8245Z" fill="black"/>
<path d="M520.338 14.7609H530.709V20.9048C532.629 16.312 535.815 14.2976 540.506 14.358V24.2084C534.192 24.0271 530.709 26.0415 530.709 30.9969V45.6213H520.338V14.7609Z" fill="black"/>
<path d="M544.228 1.20435H554.599V26.9885L562.773 14.7612H573.56L563.644 28.6403L574.372 45.6216H562.773L554.599 32.1051V45.6216H544.228V1.20435Z" fill="black"/>
<path d="M576.529 6.38124C576.529 3.25893 578.964 0.9021 582.21 0.9021C585.455 0.9021 587.949 3.25893 587.949 6.38124C587.949 9.50354 585.455 11.7999 582.21 11.7999C578.964 11.8201 576.529 9.52368 576.529 6.38124ZM577.044 14.7611H587.415V45.6215H577.044V14.7611Z" fill="black"/>
<path d="M590.324 14.761H601.388L607.702 34.643L613.917 14.761H623.833L612.749 45.6214H601.448L590.324 14.761Z" fill="black"/>
<path d="M289.813 3.5813H223.943V45.6014H289.813V3.5813Z" fill="black"/>
<path d="M53.6466 25.095H47.0952V3.74243H0.344971V28.9021C0.344971 38.0273 7.60887 45.4403 16.5947 45.4403H84.147C93.1131 45.4403 100.397 38.0475 100.397 28.9021V3.74243H53.6466V25.095Z" fill="black"/>
<path d="M294.84 17.4805H312.079V45.6215H377.89V17.4805H395.387V3.60132H294.84V17.4805Z" fill="black"/>
<path d="M170.978 14.0359L156.272 3.60132H105.781V45.5812H153.105V35.5495L167.237 45.5812H218.579V3.60132H170.978V14.0359Z" fill="black"/>
</svg>
